<?xml version="1.0" encoding="UTF-8" standalone="no"?>
<!-- Created with Inkscape (http://www.inkscape.org/) -->

<svg
   width="210mm"
   height="297mm"
   viewBox="0 0 210 297"
   version="1.1"
   id="svg1"
   xml:space="preserve"
   xmlns="http://www.w3.org/2000/svg"
   xmlns:svg="http://www.w3.org/2000/svg"><defs
     id="defs1" /><g
     id="layer1"><path
       style="fill:#000000"
       d="m 93.167108,181.36776 c -8.447147,-7.0617 -9.993618,-37.3966 -9.807903,-39.21561 l 0.337663,-3.30729 0.403789,-1.06183 c 0.222084,-0.58401 0.487438,-1.55695 0.589676,-2.16209 l 0.185888,-1.10026 0.381091,-0.14623 0.381091,-0.14624 0.277972,-0.73112 0.277971,-0.73112 -0.575837,-0.46629 -0.575837,-0.46628 h -0.911943 -0.911943 l 0.08136,-1.12448 0.08136,-1.12448 1.636203,-0.15658 1.636203,-0.15658 0.649145,-0.42533 0.649145,-0.42534 1.683402,-0.0795 1.683402,-0.0796 0.08645,-0.60986 0.08645,-0.60985 -0.650789,-0.84535 c -0.357935,-0.46495 -1.138165,-1.20254 -1.733846,-1.6391 -0.595681,-0.43657 -1.08587,-0.88305 -1.08931,-0.99219 l -0.0063,-0.19844 h 0.986575 0.986575 l 1.798309,0.68717 1.798309,0.68717 0.390116,-0.1497 0.390116,-0.1497 v -0.41477 -0.41477 l -1.322917,-1.72602 -1.322917,-1.72601 v -1.96438 -1.96439 l 0.750681,-0.84016 0.750681,-0.84016 0.307652,0.19014 0.307653,0.19014 v 0.75027 c 0,0.41264 0.235944,1.51416 0.52432,2.44781 l 0.52432,1.69756 1.729658,1.79027 1.729657,1.79028 0.32571,-0.109 0.32571,-0.109 0.01615,-3.68169 0.01615,-3.68168 0.827599,-1.74452 c 0.455182,-0.95949 1.239412,-2.28403 1.742732,-2.94342 0.50333,-0.6594 1.06413,-1.47729 1.24623,-1.81755 l 0.3311,-0.61866 0.18714,0.51936 c 0.10293,0.28565 0.26798,1.76952 0.36678,3.29749 0.0988,1.52797 0.28379,3.13532 0.41109,3.57188 0.1273,0.43656 0.30395,1.12117 0.39255,1.52135 l 0.16109,0.72761 h 0.52413 0.52412 l 0.0293,-0.33073 c 0.0161,-0.1819 0.007,-0.60017 -0.0194,-0.92948 -0.0268,-0.32931 0.0979,-1.04369 0.27697,-1.5875 0.17911,-0.54381 0.65274,-1.40547 1.05251,-1.91479 0.39977,-0.50933 1.08294,-1.60408 1.51814,-2.43278 l 0.79129,-1.50674 0.18595,-1.60212 0.18594,-1.60211 h 1.02732 1.02731 l 0.14771,0.7276 c 0.0812,0.40018 0.32164,1.41042 0.53421,2.24496 l 0.38649,1.51736 v 1.5915 1.59149 l 0.46303,-0.003 0.46302,-0.003 2.49253,-2.2587 2.49254,-2.25871 0.68246,0.0794 0.68247,0.0794 0.0778,0.5442 0.0778,0.5442 -0.80995,1.01919 -0.80994,1.01918 0.14108,0.44452 0.14109,0.44452 -0.42467,1.01637 c -0.23356,0.559 -0.54042,1.61998 -0.68191,2.35772 -0.14148,0.73774 -0.32272,1.72994 -0.40276,2.20489 l -0.14551,0.86354 0.32635,0.39323 c 0.17949,0.21628 0.50135,0.39323 0.71524,0.39323 0.21389,0 0.69162,-0.23812 1.06162,-0.52917 l 0.67273,-0.52916 h 0.46 0.46001 l 1.29025,-0.95524 1.29025,-0.95523 0.88256,-1.1507 0.88256,-1.15071 0.37279,-1.23867 c 0.20503,-0.68127 0.50707,-1.40048 0.67119,-1.59823 l 0.2984,-0.35956 h 0.49173 0.49173 l 0.16752,0.66744 0.16751,0.66743 -0.18174,1.77996 c -0.1,0.97898 -0.35833,2.47775 -0.57418,3.33059 -0.21584,0.85284 -0.33362,1.60944 -0.26174,1.68132 0.0719,0.0719 1.68762,0.11299 3.59053,0.0914 l 3.45983,-0.0393 0.17058,0.44451 0.17057,0.4445 -0.26496,0.42005 c -0.14573,0.23103 -0.84272,0.73798 -1.54888,1.12657 l -1.28391,0.70653 -0.32144,-0.12335 -0.32143,-0.12334 -0.81763,0.42281 -0.81746,0.42172 v 0.39008 0.39008 h 1.58466 1.58466 l 1.32975,-0.50526 1.32975,-0.50527 0.9483,-0.83261 0.94829,-0.83261 0.54204,0.0811 0.54205,0.0811 0.26546,0.42373 0.26546,0.42372 -0.7676,1.53527 -0.76761,1.53527 -2.08106,2.10867 -2.08105,2.10867 0.55076,1.09171 c 0.30291,0.60044 1.09349,1.74656 1.75683,2.54692 l 1.20607,1.45521 1.30191,2.64583 1.30191,2.64584 0.65167,2.24895 c 0.35842,1.23693 0.91174,3.38006 1.2296,4.7625 l 0.57794,2.51355 0.76001,1.33894 c 0.41801,0.73642 1.1876,1.77921 1.71021,2.31732 l 0.95019,0.97839 1.04344,0.53232 1.04344,0.53232 v 0.50818 0.50817 l -0.28499,0.17613 c -0.15674,0.0969 -1.00726,0.34463 -1.89003,0.55057 l -1.60506,0.37443 -0.42506,-0.13203 -0.42507,-0.13204 -0.34189,0.21491 -0.34189,0.21491 0.57602,2.09416 0.57602,2.09415 -0.20073,3.30729 c -0.11041,1.81901 -0.19408,3.69976 -0.18594,4.17945 l 0.0148,0.87216 0.67941,1.15933 0.67941,1.15933 v 0.5158 0.5158 l -0.36334,0.30155 -0.36334,0.30154 -0.43941,-0.16861 -0.43941,-0.16862 -1.34806,-2.0697 -1.34807,-2.0697 -0.40059,-0.15373 -0.4006,-0.15372 -0.14763,0.14763 c -0.0812,0.0812 -0.22369,0.82814 -0.31667,1.65987 l -0.16903,1.51225 0.25198,0.92257 0.25199,0.92256 1.69005,1.63282 1.69005,1.63281 v 0.36826 c 0,0.20255 -0.14288,0.51114 -0.3175,0.68577 -0.17463,0.17462 -0.54526,0.3175 -0.82362,0.3175 h -0.50613 l -1.98437,-1.98437 -1.98438,-1.98437 h -0.50318 -0.50318 l -0.5388,0.85989 -0.53881,0.8599 0.14878,1.2104 0.14878,1.21039 -0.79671,0.70988 -0.79672,0.70987 v 0.34624 c 0,0.19043 0.12571,1.05272 0.27934,1.91619 0.15363,0.86347 0.34025,1.77831 0.4147,2.03297 l 0.13537,0.46302 -1.53918,-9.9e-4 -1.53918,-0.001 -0.48253,-1.17342 c -0.26539,-0.64538 -0.62888,-1.29489 -0.80776,-1.44335 l -0.32525,-0.26992 -0.87338,0.53113 -0.87338,0.53114 0.12978,0.45018 c 0.0714,0.2476 0.21555,0.65855 0.32039,0.91321 l 0.19062,0.46302 h -0.94605 -0.94604 l 0.15229,0.39687 0.1523,0.39688 h -1.61581 -1.61581 v -0.39688 -0.39687 h -1.4469 -1.44691 l 0.1523,0.39687 0.15229,0.39688 -25.411995,-4.54979 z m 28.097942,3.12295 3.48771,-0.24067 1.0102,-0.53441 c 0.55562,-0.29393 1.90318,-1.2257 2.99458,-2.0706 l 1.98438,-1.53619 1.97567,-3.89613 1.97567,-3.89613 0.10291,-1.82113 0.1029,-1.82113 -0.41349,-1.42098 -0.41349,-1.42098 -0.68107,-0.92605 c -0.37459,-0.50932 -1.24295,-1.50722 -1.92967,-2.21755 -0.68673,-0.71033 -1.90344,-1.78546 -2.70381,-2.38918 l -1.4552,-1.09768 -2.28924,-1.11654 -2.28924,-1.11655 h -0.53781 c -0.29579,0 -0.87298,0.12363 -1.28264,0.27473 l -0.74482,0.27472 -0.71124,0.84976 -0.71124,0.84975 -0.33375,-0.33061 -0.33375,-0.33061 0.62031,-1.65376 c 0.34117,-0.90957 0.63282,-1.94788 0.64811,-2.30735 l 0.0278,-0.65357 -0.66146,-0.31867 -0.66146,-0.31867 -2.81639,-0.18647 -2.81639,-0.18647 -1.87371,0.56912 -1.87372,0.56912 -0.3088,0.577 -0.3088,0.577 0.61027,1.75989 0.61027,1.7599 -0.16712,0.43551 c -0.0919,0.23954 -0.28843,0.43552 -0.4367,0.43552 h -0.26956 l -0.6681,-1.05834 c -0.36745,-0.58208 -0.77653,-1.05833 -0.90906,-1.05833 -0.13253,0 -0.61803,0.31728 -1.07888,0.70506 -0.46085,0.38778 -1.28293,1.31051 -1.82683,2.05052 -0.54391,0.74 -1.29955,1.88124 -1.6792,2.53609 -0.37965,0.65484 -0.86477,1.7264 -1.07803,2.38125 -0.21327,0.65484 -0.51846,1.97428 -0.67819,2.93209 l -0.29044,1.74146 v 2.16949 2.16948 l 0.54445,1.61618 0.54445,1.61618 1.02879,1.51495 c 0.56583,0.83323 1.41013,1.83584 1.87623,2.22803 0.46609,0.39219 1.5143,1.04615 2.32937,1.45325 l 1.48192,0.74017 2.18819,0.43436 c 1.2035,0.2389 2.69178,0.44845 3.30729,0.46566 0.61551,0.0172 1.47629,0.1222 1.91286,0.23328 0.43656,0.11109 1.15093,0.21186 1.5875,0.22394 0.43656,0.0121 2.36322,-0.0863 4.28146,-0.21871 z m -4.67834,-0.98144 c -1.09141,-0.20474 -2.42549,-0.48874 -2.96464,-0.63111 l -0.98026,-0.25886 -0.84506,-0.71107 c -0.46478,-0.39109 -1.18452,-1.17968 -1.59942,-1.75244 l -0.75437,-1.04137 0.006,-0.95249 0.006,-0.95249 0.50417,-1.11052 0.50418,-1.11053 0.96885,-0.94088 0.96886,-0.94089 0.63783,-0.16009 0.63782,-0.16008 0.70983,0.17815 c 0.39041,0.098 1.05439,0.46808 1.47551,0.82244 l 0.76568,0.64427 0.44272,-0.008 c 0.2435,-0.005 0.67384,-0.18322 0.95631,-0.39687 l 0.51359,-0.38847 h 1.15745 1.15745 l 0.48813,0.26124 c 0.26847,0.14368 0.73689,0.66375 1.04094,1.15571 l 0.55281,0.89447 v 1.72108 1.72107 l -0.52139,1.17869 c -0.28677,0.64829 -0.77353,1.49924 -1.0817,1.89101 -0.30816,0.39177 -0.90106,0.88852 -1.31755,1.1039 -0.41648,0.21537 -0.91199,0.37476 -1.10112,0.35419 -0.18912,-0.0206 -1.23683,-0.20491 -2.32824,-0.40965 z m 3.22787,-1.34607 0.76266,-0.45051 0.14631,-0.58294 0.14631,-0.58294 -0.15128,-0.24478 -0.15128,-0.24477 -1.61384,-0.18259 -1.61384,-0.18259 -0.39381,0.32683 -0.3938,0.32683 -0.78882,-0.46596 -0.78881,-0.46597 -0.63974,0.41917 -0.63973,0.41917 h -0.67076 -0.67077 v 0.35587 c 0,0.19572 0.20836,0.53761 0.46302,0.75975 0.25466,0.22213 0.76068,0.56255 1.12448,0.75647 0.3638,0.19392 1.19724,0.43643 1.85208,0.53891 l 1.19063,0.18632 1.03416,-0.11788 1.03417,-0.11787 z m 0.54244,-4.29324 1.25677,-0.004 v -0.76347 -0.76348 l -0.76761,-0.82173 -0.76761,-0.82173 h -0.42397 c -0.23319,0 -0.86725,0.23758 -1.40903,0.52796 l -0.98506,0.52796 -0.53534,-0.15558 c -0.29443,-0.0856 -1.0248,-0.38529 -1.62305,-0.66605 l -1.08771,-0.51048 -0.49979,0.17688 c -0.27488,0.0973 -0.82721,0.47936 -1.22739,0.84905 l -0.7276,0.67218 v 0.59634 0.59634 l 0.30763,0.19013 c 0.1692,0.10457 0.67522,0.28171 1.12448,0.39364 l 0.81685,0.20351 2.64583,-0.11209 c 1.45521,-0.0616 3.21138,-0.11373 3.9026,-0.11573 z m -14.44546,-4.15494 -1.23415,-3.12016 -0.76989,-1.16106 -0.76988,-1.16105 0.13826,-0.3603 c 0.076,-0.19817 0.27435,-0.35848 0.44068,-0.35625 0.16633,0.002 0.44328,0.0936 0.61543,0.2031 0.17216,0.10948 0.73302,0.89654 1.24637,1.74904 0.51334,0.85249 1.23053,2.33867 1.59376,3.30263 l 0.66041,1.75264 0.0776,1.04897 0.0776,1.04897 -0.42102,0.0868 -0.42101,0.0868 z m 13.21637,-4.35999 -1.15865,-2.46434 -0.18464,-2.30033 -0.18464,-2.30032 0.17265,-0.54395 0.17264,-0.54394 h 0.51133 0.51134 v 1.8431 1.84311 l 0.36664,0.86887 c 0.20165,0.47788 0.61837,1.7891 0.92604,2.91382 0.30767,1.12472 0.5594,2.21902 0.5594,2.43178 0,0.21276 -0.12003,0.46102 -0.26673,0.55169 l -0.26673,0.16485 z m -6.60056,1.45331 c -0.0747,-0.26294 -0.17416,-2.264 -0.22104,-4.44682 l -0.0852,-3.96875 h 0.39687 0.39688 l 0.59531,1.18054 0.59531,1.18055 -0.0213,1.99445 -0.0213,1.99446 -0.30944,1.18828 -0.30944,1.18827 -0.44041,0.0835 -0.44042,0.0836 z m 13.65049,0.27159 -0.33073,-0.1323 v -0.78808 -0.78809 l 0.67414,-1.42502 0.67414,-1.42502 0.54312,-0.17238 0.54312,-0.17237 0.26128,0.26128 0.26128,0.26128 -0.69116,1.04441 -0.69116,1.04442 -0.19584,1.14719 -0.19584,1.14719 -0.26081,0.0649 c -0.14345,0.0357 -0.40964,0.005 -0.59154,-0.0674 z m -13.82738,-13.38351 c -0.28836,-0.47294 -0.52474,-0.99415 -0.52528,-1.15823 -5.4e-4,-0.16408 0.15183,-0.42516 0.33861,-0.58018 l 0.33961,-0.28184 0.31159,0.19257 c 0.17138,0.10592 0.49859,0.64013 0.72715,1.18714 l 0.41555,0.99456 -0.15632,0.25294 c -0.086,0.13911 -0.32964,0.25293 -0.54147,0.25293 h -0.38515 z m 3.11017,0.70397 -0.15592,-0.15592 0.145,-0.96855 0.145,-0.96856 0.33831,-0.36204 0.33831,-0.36204 0.28997,0.17922 0.28997,0.17921 v 0.6334 c 0,0.34836 -0.13817,0.93665 -0.30705,1.3073 l -0.30705,0.6739 h -0.31031 c -0.17067,0 -0.38047,-0.0702 -0.46623,-0.15592 z m -14.91785,5.3153 0.1523,-0.39688 h -0.25628 -0.25628 v 0.39688 c 0,0.21828 0.0468,0.39687 0.10399,0.39687 0.0572,0 0.17251,-0.17859 0.25627,-0.39687 z m 1.69692,-3.37994 c 0.60468,-0.91308 1.48327,-2.05277 1.95243,-2.53263 0.46916,-0.47987 1.18595,-1.04466 1.59287,-1.25509 l 0.73986,-0.38259 0.14758,-0.72279 c 0.0812,-0.39754 0.29163,-1.02045 0.4677,-1.38425 l 0.32012,-0.66146 1.32207,-0.66146 1.32207,-0.66146 4.23333,0.0218 4.23334,0.0218 0.98277,0.42375 0.98277,0.42375 0.1638,0.74504 c 0.0901,0.40978 0.20973,0.89405 0.26585,1.07616 l 0.10204,0.33113 0.9342,0.39648 c 0.5138,0.21806 1.35495,0.57507 1.86921,0.79336 0.51426,0.21828 1.21244,0.39687 1.55152,0.39687 h 0.61649 l 0.67167,-0.99219 c 0.36942,-0.5457 1.05975,-1.88515 1.53406,-2.97656 l 0.86239,-1.98437 0.34623,-1.5875 c 0.19042,-0.87313 0.42079,-2.7186 0.51194,-4.10105 l 0.16571,-2.51354 -0.35637,-1.03252 -0.35637,-1.03251 -0.46416,-0.28977 -0.46416,-0.28976 -0.85876,0.97472 c -0.47231,0.5361 -0.98472,1.18105 -1.13869,1.43321 l -0.27994,0.45848 -1.04298,-0.0417 -1.04297,-0.0417 -1.36178,0.39322 -1.36177,0.39322 -1.41635,1.06792 c -0.779,0.58736 -1.68579,1.13668 -2.0151,1.22072 l -0.59875,0.15278 -0.3967,-0.32923 -0.3967,-0.32923 0.30024,-0.36177 c 0.16513,-0.19898 0.4475,-0.36177 0.62748,-0.36177 0.17999,0 0.85002,-0.41864 1.48896,-0.93031 l 1.16172,-0.93031 2.11666,-0.64274 c 1.16417,-0.3535 2.47386,-0.679 2.91042,-0.72333 l 0.79375,-0.0806 0.0822,-0.57741 0.0822,-0.57742 -0.58906,-0.31525 -0.58906,-0.31526 -1.57172,0.14252 -1.57171,0.14252 -0.69955,0.83483 -0.69955,0.83484 -0.46302,-0.17914 -0.46302,-0.17914 v -0.35926 -0.35926 l -0.53789,-0.28786 -0.53788,-0.28787 -0.85118,0.26991 c -0.46815,0.14845 -2.07065,0.64745 -3.56111,1.10888 l -2.70993,0.83896 -0.27764,0.33453 -0.27764,0.33454 -2.1718,-0.13832 -2.17181,-0.13831 -1.32291,-0.34773 c -0.72761,-0.19125 -1.73964,-0.49241 -2.24896,-0.66923 -0.50933,-0.17683 -1.17829,-0.4345 -1.48658,-0.57261 l -0.56054,-0.25112 -0.48829,0.094 -0.4883,0.094 -0.237273,1.00329 -0.237273,1.00329 0.445075,0.4918 c 0.244791,0.27049 1.061661,0.76259 1.815271,1.09355 l 1.3702,0.60174 1.5875,0.018 1.5875,0.018 0.0661,0.19844 c 0.0364,0.10914 0.0661,0.3175 0.0661,0.46302 v 0.26458 h -0.338 c -0.1859,0 -0.61132,0.19144 -0.94536,0.42541 l -0.60735,0.42541 0.5649,0.60132 0.56491,0.60131 -0.83567,0.29132 -0.83568,0.29132 0.17945,1.30472 0.17944,1.30472 -0.32945,0.61838 c -0.1812,0.34011 -0.51837,0.75794 -0.74926,0.92851 -0.23089,0.17057 -0.9065,0.38333 -1.50136,0.4728 l -1.08154,0.16267 -0.690554,-0.26255 -0.690552,-0.26255 -0.469499,-0.71654 -0.469498,-0.71655 -0.139652,-1.21349 -0.139651,-1.2135 h -1.058333 -1.058334 l 0.08069,-0.39687 c 0.04438,-0.21828 0.282502,-0.54164 0.529166,-0.71858 0.246664,-0.17694 0.597309,-0.44953 0.77921,-0.60575 0.181901,-0.15622 0.330729,-0.45794 0.330729,-0.67048 v -0.38644 l -0.529167,-0.52917 c -0.291041,-0.29104 -0.691145,-0.52917 -0.88912,-0.52917 -0.197974,0 -0.798574,0.29766 -1.334666,0.66146 l -0.974714,0.66146 h -0.517416 -0.517417 v -0.50852 -0.50851 l 1.621657,-0.81035 c 0.891911,-0.4457 1.78488,-0.94582 1.984375,-1.11138 l 0.362718,-0.30103 v -1.00704 -1.00704 l -0.415774,-0.41577 -0.415774,-0.41578 h -1.03126 -1.031259 l -1.970367,0.6432 c -1.083702,0.35375 -2.314358,0.82107 -2.73479,1.03849 l -0.764422,0.3953 -0.320424,0.70325 -0.320424,0.70325 0.400742,2.30972 c 0.220408,1.27034 0.582106,2.92043 0.803773,3.66687 0.221667,0.74643 0.814172,2.08453 1.316677,2.97355 0.502505,0.88903 1.287737,2.13732 1.744961,2.77399 0.457224,0.63668 1.263912,1.49695 1.792641,1.91173 0.528729,0.41477 1.783704,1.16522 2.788835,1.66766 l 1.82751,0.91353 1.038351,0.99765 c 0.571092,0.54871 1.184602,0.99765 1.363352,0.99765 h 0.325 z m 19.45326,-9.78308 c -0.29822,-0.32742 -0.67457,-0.85239 -0.83632,-1.16659 l -0.29409,-0.57128 0.94065,-0.55499 0.94066,-0.555 -0.0843,-0.59352 -0.0843,-0.59352 -1.12448,-0.0814 -1.12448,-0.0814 v -0.23376 c 0,-0.12857 0.1073,-0.30007 0.23843,-0.38111 0.13113,-0.0811 1.17293,-0.32618 2.3151,-0.54474 1.14218,-0.21856 2.44088,-0.3974 2.88601,-0.39742 l 0.80933,-5e-5 0.51359,0.39487 0.51359,0.39487 -0.86228,0.72961 -0.86229,0.72961 0.001,0.92604 0.001,0.92604 -0.5283,0.86649 -0.5283,0.86649 -0.67856,0.25799 c -0.37321,0.1419 -0.88818,0.25799 -1.14439,0.25799 h -0.46582 z m -11.30715,-3.34621 -0.1467,-0.23736 0.16963,-1.62294 0.16963,-1.62293 0.2479,-0.15321 c 0.13634,-0.0843 0.8036,-0.18822 1.4828,-0.23101 0.6792,-0.0428 1.3171,-0.0271 1.41755,0.035 l 0.18263,0.11277 -0.29157,0.8364 -0.29157,0.8364 0.79903,0.67911 0.79903,0.6791 -0.11683,0.33073 -0.11683,0.33073 -0.70555,-0.008 -0.70556,-0.008 -0.50004,-0.37855 -0.50003,-0.37855 -0.66013,0.51926 c -0.36307,0.28559 -0.7561,0.51925 -0.87341,0.51925 -0.11731,0 -0.2793,-0.10681 -0.35998,-0.23735 z m -9.26215,2.76499 0.42416,-0.64736 -0.3544,-0.7417 -0.3544,-0.7417 -0.61465,-0.0874 -0.614652,-0.0874 -0.507348,0.45914 -0.507348,0.45914 v 0.50556 c 0,0.27805 0.123252,0.73585 0.273893,1.01732 l 0.273892,0.51177 h 0.778342 0.778341 z m 0.31934,-3.69992 0.17601,-0.17601 -0.28026,-0.44432 -0.28027,-0.44431 -0.63641,-0.16291 -0.636423,-0.16292 -0.463021,0.23235 -0.46302,0.23236 v 0.68655 0.68656 l 1.203694,-0.13567 c 0.66203,-0.0746 1.2829,-0.21488 1.3797,-0.31168 z"
       id="path1" /></g></svg>
