<?xml version="1.0" encoding="UTF-8" standalone="no"?>
<!-- Created with Inkscape (http://www.inkscape.org/) -->

<svg
   width="210mm"
   height="297mm"
   viewBox="0 0 210 297"
   version="1.1"
   id="svg1"
   xml:space="preserve"
   xmlns="http://www.w3.org/2000/svg"
   xmlns:svg="http://www.w3.org/2000/svg"><defs
     id="defs1" /><g
     id="layer1"><path
       style="fill:#000000"
       d="m 94.857251,191.26231 c 0.288773,-0.38109 1.159873,-1.44079 1.935777,-2.35488 0.775904,-0.91409 1.508332,-1.91869 1.627619,-2.23243 0.119286,-0.31375 0.504198,-0.92093 0.85536,-1.34929 0.351161,-0.42836 1.017713,-1.35035 1.481233,-2.04887 0.46352,-0.69852 0.84276,-1.42808 0.84276,-1.62125 0,-0.19317 0.17728,-0.49834 0.39396,-0.67817 0.21668,-0.17983 0.35053,-0.40277 0.29744,-0.49542 -0.0531,-0.0926 0.0626,-1.06143 0.25699,-2.15283 0.19444,-1.09141 0.35825,-2.65912 0.36403,-3.4838 l 0.0105,-1.49941 -0.54408,-1.27871 c -0.29924,-0.70329 -0.85676,-1.7332 -1.23893,-2.28868 l -0.69486,-1.00998 -2.357229,-1.85943 -2.357224,-1.85943 0.131807,-0.50403 c 0.07249,-0.27722 0.0753,-0.50403 0.0062,-0.50403 -0.06906,0 -1.75456,0.72394 -3.745542,1.60877 -1.990982,0.88482 -4.483064,1.89976 -5.537959,2.25542 l -1.91799,0.64665 -2.031931,0.25763 -2.031931,0.25762 -1.611618,-0.28065 -1.611618,-0.28065 -4.872698,-2.31427 -4.872697,-2.31428 -0.119053,-0.35716 -0.119053,-0.35715 0.435275,0.16703 0.435275,0.16703 0.704073,-0.26769 c 0.38724,-0.14723 2.292628,-0.67839 4.234197,-1.18035 l 3.530124,-0.91266 1.385901,-0.6999 c 0.762246,-0.38495 1.921683,-1.06674 2.576527,-1.51509 0.654843,-0.44835 1.716409,-1.29554 2.359034,-1.88264 0.642625,-0.5871 1.863016,-2.0005 2.711979,-3.14089 l 1.54357,-2.07343 v -0.50625 -0.50626 l 0.859896,-0.0112 0.859896,-0.0112 -1.455209,-0.60854 c -0.800364,-0.33471 -2.288645,-1.11898 -3.307291,-1.74283 -1.018646,-0.62385 -2.431348,-1.59367 -3.139339,-2.15515 -0.70799,-0.56147 -1.751559,-1.44034 -2.319041,-1.95302 -0.567482,-0.51269 -1.435357,-1.46087 -1.928611,-2.10706 -0.493254,-0.6462 -1.18542,-1.80577 -1.538148,-2.57682 -0.352728,-0.77106 -0.889664,-2.23535 -1.193191,-3.254 -0.303528,-1.01865 -0.682548,-2.50693 -0.842268,-3.30729 -0.15972,-0.80037 -0.387014,-3.00302 -0.505098,-4.89479 -0.118084,-1.89177 -0.185892,-3.79677 -0.150684,-4.23334 0.03521,-0.43656 0.07369,-0.94257 0.08551,-1.12448 0.01182,-0.1819 0.121447,-0.33073 0.243609,-0.33073 0.122163,0 0.360288,0.30326 0.529167,0.67391 0.168879,0.37065 0.307053,0.73487 0.307053,0.80937 0,0.0745 -0.119063,0.0619 -0.264583,-0.0281 l -0.264584,-0.16352 v 0.25189 c 0,0.13854 0.186803,0.32358 0.415119,0.41119 l 0.415118,0.15929 -0.167867,0.59662 -0.167867,0.59662 0.228495,-0.32606 0.228495,-0.32605 0.781025,1.49747 c 0.429563,0.82362 1.135567,1.92284 1.568898,2.44272 0.433331,0.51989 1.515519,1.66511 2.404862,2.54494 l 1.616987,1.59968 1.540575,1.02258 1.540575,1.02257 2.007688,0.84383 c 1.104229,0.4641 2.641282,0.99464 3.415673,1.17898 0.774392,0.18433 1.873148,0.32873 2.441681,0.32089 l 1.033697,-0.0143 0.672649,-0.47968 0.67265,-0.47969 0.902582,-1.85208 0.902583,-1.85208 0.661399,-3.21707 0.661398,-3.21707 0.712567,-1.81001 c 0.391912,-0.99551 0.957148,-2.22674 1.256081,-2.73606 0.298932,-0.50932 1.026324,-1.46182 1.616434,-2.11667 0.5901,-0.65484 1.78916,-1.79771 2.66456,-2.5397 0.87541,-0.74199 2.54415,-1.95258 3.70832,-2.6902 l 2.11667,-1.34113 2.4396,-0.97246 2.4396,-0.97247 0.31504,0.10502 0.31505,0.10501 -2.09319,1.46724 -2.09319,1.46724 -0.99218,1.09899 c -0.54571,0.60444 -1.00028,1.24747 -1.01016,1.42895 -0.01,0.18148 -0.0548,0.80622 -0.0998,1.3883 -0.045,0.58209 -0.21766,1.95131 -0.38367,3.04271 l -0.30182,1.98438 0.16108,2.24895 0.16109,2.24896 0.6963,1.41992 0.6963,1.41992 1.19789,1.06309 1.1979,1.0631 2.11667,1.11328 2.11666,1.11328 -0.0561,0.27616 -0.0561,0.27616 2.1539,-1.16123 c 1.18465,-0.63868 2.88216,-1.45259 3.77225,-1.80868 0.89009,-0.35609 2.20827,-0.78547 2.92928,-0.95418 l 1.31093,-0.30674 2.24896,-0.0267 2.24896,-0.0267 1.56665,0.47303 c 0.86166,0.26016 2.6476,0.94694 3.96875,1.52616 1.32115,0.57923 3.11647,1.41886 3.9896,1.86585 0.87312,0.44699 1.73633,0.93091 1.91823,1.07537 0.1819,0.14446 0.33073,0.41498 0.33073,0.60115 v 0.3385 l -1.64766,0.19123 c -0.90621,0.10518 -2.12489,0.35962 -2.70819,0.56541 -0.58329,0.2058 -1.50379,0.42988 -2.04555,0.49794 -0.54176,0.0681 -1.93614,0.43055 -3.09864,0.80551 l -2.11362,0.68175 -1.53536,0.92112 c -0.84445,0.50661 -1.93245,1.30037 -2.41779,1.76391 -0.48534,0.46354 -1.46646,1.61671 -2.18027,2.56259 -0.71381,0.94589 -1.29898,1.87437 -1.30038,2.0633 -0.001,0.18893 -0.22463,0.80317 -0.49606,1.36498 l -0.49352,1.02147 0.16279,0.23809 c 0.0895,0.13095 0.99622,0.69461 2.01487,1.25257 1.01865,0.55797 2.57781,1.5261 3.46481,2.15141 l 1.61272,1.13693 1.86192,1.99373 1.86192,1.99373 1.07386,2.18929 c 0.59062,1.20411 1.33088,2.9632 1.645,3.90908 0.31413,0.94589 0.73579,2.4937 0.93701,3.43959 l 0.36586,1.71979 0.005,3.47266 c 0.003,1.90996 -0.0723,3.85696 -0.16621,4.32666 l -0.1708,0.85401 -0.91599,-1.81312 c -0.5038,-0.99722 -0.92303,-1.96195 -0.93163,-2.14386 -0.009,-0.1819 -0.11486,-0.33073 -0.23613,-0.33073 -0.12126,0 -0.22048,-0.15213 -0.22048,-0.33807 0,-0.18594 -0.20836,-0.52526 -0.46302,-0.75406 -0.25466,-0.22879 -1.05834,-1.19678 -1.78594,-2.1511 l -1.32292,-1.73512 -0.59092,-0.33131 -0.59093,-0.33131 -0.16084,-0.50674 c -0.0885,-0.27871 -0.21968,-0.44789 -0.29162,-0.37596 -0.0719,0.0719 -0.44156,-0.12746 -0.8214,-0.44308 -0.37984,-0.31563 -0.97845,-0.84984 -1.33023,-1.18713 -0.35179,-0.33729 -0.89402,-0.72935 -1.20496,-0.87125 -0.31094,-0.1419 -0.80347,-0.40316 -1.09451,-0.58058 -0.29104,-0.17742 -0.82683,-0.51634 -1.19063,-0.75316 -0.3638,-0.23682 -1.25677,-0.57754 -1.98437,-0.75717 l -1.32292,-0.32659 -1.49653,0.31097 -1.49654,0.31096 -1.23814,0.82011 -1.23814,0.82011 -0.64582,0.97591 -0.64583,0.97591 -0.26364,2.35756 c -0.145,1.29666 -0.44198,3.07194 -0.65996,3.94506 l -0.39633,1.5875 -1.01286,2.11667 -1.01286,2.11667 -0.94674,1.12653 c -0.52072,0.61959 -1.56513,1.65437 -2.32093,2.29951 -0.7558,0.64513 -3.0689,2.30205 -5.14023,3.68203 l -3.766053,2.50906 -1.95245,1.67372 -1.952449,1.67373 z m 1.715667,-27.61752 c 0,-0.0728 -0.05953,-0.13229 -0.132292,-0.13229 -0.07276,0 -0.132291,0.0595 -0.132291,0.13229 0,0.0728 0.05953,0.13229 0.132291,0.13229 0.07276,0 0.132292,-0.0595 0.132292,-0.13229 z"
       id="path1" /></g></svg>
